<svg width="33" height="35" viewBox="0 0 33 35" fill="none" xmlns="http://www.w3.org/2000/svg">
<path fill-rule="evenodd" clip-rule="evenodd" d="M0.00954588 6.1386L0.71597 22.5009C0.71597 28.6933 0.0477276 26.5931 4.47083 28.9924L13.3043 33.9087C17.056 35.9357 18.2811 34.9238 22.1092 32.6359L29.8003 28.2828C31.2863 27.4586 31.4709 27.9455 31.6204 24.3052L32.2887 9.14567C32.2887 4.94212 32.4 6.10677 26.1218 3.55473C15.6432 -0.686997 17.6511 -1.25023 8.62028 2.50146C5.7564 3.70429 2.57431 4.94212 0 6.14177L0.00954588 6.1386ZM18.5516 6.96593V21.0371C18.5576 21.1473 18.541 21.2575 18.5027 21.361C18.4644 21.4644 18.4052 21.5589 18.3288 21.6386C18.1423 21.795 17.9038 21.8757 17.6606 21.8645H14.6885C14.4557 21.871 14.2287 21.7905 14.0521 21.6386C13.9584 21.5691 13.8827 21.4783 13.8312 21.3737C13.7798 21.2691 13.754 21.1537 13.7562 21.0371V6.96593C13.7562 6.44089 14.0521 6.1386 14.6853 6.1386H17.6574C18.2493 6.1386 18.5484 6.44089 18.5484 6.96593H18.5516ZM13.4984 26.329C13.4936 26.0069 13.5611 25.6879 13.6961 25.3955C13.831 25.103 14.0299 24.8446 14.278 24.6393C14.7805 24.1678 15.4476 23.912 16.1364 23.9265C16.4894 23.9122 16.8418 23.9679 17.1733 24.0902C17.5047 24.2125 17.8088 24.3991 18.0679 24.6393C18.3056 24.8513 18.4951 25.1118 18.6235 25.4033C18.752 25.6948 18.8164 26.0104 18.8125 26.329C18.8138 26.6518 18.7492 26.9715 18.6228 27.2686C18.4965 27.5656 18.3109 27.8338 18.0775 28.0568C17.8161 28.2959 17.5101 28.4808 17.1769 28.601C16.8438 28.7211 16.4901 28.7741 16.1364 28.7569C15.4476 28.7714 14.7805 28.5155 14.278 28.0441C14.032 27.8287 13.8351 27.5629 13.7006 27.2648C13.5661 26.9667 13.4971 26.6433 13.4984 26.3162V26.329ZM17.9184 30.3829V31.3567L28.8043 25.2566L29.6985 9.45751C26.6882 11.0708 23.3343 12.9101 19.8531 14.5489V5.87766C19.8662 5.6039 19.775 5.33536 19.5978 5.12627C19.4206 4.91718 19.1706 4.78313 18.8984 4.7512H13.4252C13.1527 4.7824 12.9023 4.91625 12.725 5.12551C12.5477 5.33477 12.4567 5.60372 12.4706 5.87766V13.8711C8.75393 12.1814 3.22028 9.59116 2.69842 9.59116L3.47802 24.9798C4.81768 26.103 7.34427 27.5254 8.75393 28.2446L12.9861 30.2684C13.0625 30.2684 13.0975 30.3066 13.1357 30.3066L15.2899 31.3567V30.3829H17.9184Z" fill="#E61C44"/>
</svg>
