<svg width="16" height="20" viewBox="0 0 16 20" fill="none" xmlns="http://www.w3.org/2000/svg">
<path fill-rule="evenodd" clip-rule="evenodd" d="M12.6606 0.275657C12.4344 0.354469 12.2279 0.561545 12.1156 0.822467L12.0501 0.974573L12.0433 7.91284C12.0391 12.1098 12.0456 14.9591 12.0596 15.1245C12.0777 15.3376 12.0972 15.4268 12.148 15.5284C12.2394 15.7113 12.3869 15.8679 12.5502 15.9552L12.6895 16.0298L13.3289 16.0382C13.8592 16.0452 13.9938 16.0392 14.1174 16.0031C14.2978 15.9505 14.4745 15.8107 14.5874 15.6315C14.7561 15.3635 14.7441 15.9711 14.737 8.08597L14.7307 0.947784L14.6509 0.770255C14.5581 0.563581 14.4246 0.421521 14.2295 0.321867C14.0919 0.251601 14.0882 0.251252 13.4273 0.245573C12.9289 0.241287 12.7377 0.248788 12.6606 0.275657ZM8.84789 3.62453C8.58694 3.7154 8.36889 3.93199 8.2699 4.19867L8.21376 4.34994V9.80144V15.2529L8.29181 15.4324C8.38263 15.6413 8.53621 15.8199 8.69837 15.9054C8.87615 15.9992 9.093 16.0226 9.67369 16.0106C10.1525 16.0007 10.2197 15.9936 10.3459 15.9396C10.5301 15.8608 10.7059 15.685 10.8101 15.4756L10.8943 15.3065V9.80144V4.29637L10.8286 4.1437C10.7448 3.94897 10.5737 3.76263 10.395 3.67139C10.2553 3.60008 10.253 3.59983 9.60321 3.59416C9.11238 3.58984 8.92594 3.59734 8.84789 3.62453ZM4.95167 5.64603C4.69288 5.75806 4.50704 5.96659 4.42262 6.23959C4.37943 6.37929 4.37739 6.58591 4.37739 10.8194V15.2529L4.45355 15.4271C4.55254 15.6533 4.69881 15.8135 4.90221 15.9185L5.06597 16.003H5.71766C6.34889 16.003 6.37397 16.001 6.51629 15.9386C6.71298 15.8523 6.89643 15.6606 6.98725 15.4464L7.05793 15.2797V10.7921V6.30439L6.9771 6.12555C6.88748 5.92726 6.73658 5.7638 6.55561 5.66896C6.44908 5.61314 6.40671 5.60965 5.75455 5.60328C5.1336 5.5972 5.05473 5.6014 4.95167 5.64603ZM1.25007 7.25191C1.02074 7.33934 0.861215 7.50069 0.742214 7.7655L0.663986 7.93962V11.5829C0.663986 15.0039 0.666642 15.2343 0.707637 15.3601C0.794472 15.6266 0.998415 15.8512 1.24778 15.9551C1.32906 15.9889 1.47189 16.0012 1.88442 16.0101C2.46241 16.0225 2.70761 15.9967 2.87051 15.9062C3.0328 15.816 3.19599 15.63 3.2737 15.4467L3.34452 15.2797V11.5963V7.91284L3.27274 7.75355C3.18131 7.55071 3.02362 7.37896 2.84521 7.28786C2.70545 7.21649 2.70361 7.2163 2.04114 7.20987C1.45401 7.20419 1.36245 7.20904 1.25007 7.25191ZM0.627098 16.9387C0.566233 16.9571 0.479079 16.9933 0.433436 17.0191C0.316549 17.0852 0.144036 17.2862 0.0661032 17.4471L0 17.5835V18.3604V19.1373L0.0665213 19.2848C0.156799 19.4851 0.312344 19.6506 0.504138 19.7505L0.663986 19.8338L7.63444 19.8407C15.3839 19.8484 14.772 19.8629 15.0378 19.6656C15.1149 19.6083 15.2123 19.5023 15.2648 19.4183C15.4154 19.1776 15.4356 19.036 15.4268 18.286L15.4192 17.6359L15.3383 17.4568C15.23 17.2172 15.0429 17.0344 14.8269 16.9572L14.6681 16.9004L7.70296 16.9028C2.21513 16.9047 0.714302 16.9123 0.627098 16.9387Z" fill="white"/>
</svg>
