<svg width="27" height="26" viewBox="0 0 27 26" fill="none" xmlns="http://www.w3.org/2000/svg">
<path fill-rule="evenodd" clip-rule="evenodd" d="M0.113568 25.4546C0.0840062 26.2341 1.06447 25.9659 1.81336 25.9091C2.47604 25.8818 4.37784 25.8023 4.89517 25.7477C5.21296 25.6955 5.55785 25.2659 5.75985 25.0659L6.59496 24.2864C6.96941 23.9386 6.85363 23.8318 6.91275 23.0796C6.96941 22.65 6.93985 22.0864 7.02854 21.6568C9.85168 21.4682 9.79255 21.8705 9.87878 20.4227C9.89758 20.0081 9.94614 19.5951 10.0241 19.1864C10.6572 19.1341 11.3199 19.0796 11.9259 19.025C12.4433 18.9977 12.6453 18.65 13.1355 18.1932L15.2664 16.2068C15.7591 16.3409 16.1606 16.5023 16.678 16.6091C18.2636 16.9235 19.9138 16.8115 21.4325 16.2864C25.0636 14.9977 27.4532 11.5136 26.8767 7.87728C26.7523 6.97055 26.4598 6.09031 26.0121 5.27501C25.7885 4.86499 25.5185 4.47797 25.2065 4.12046L24.4675 3.28637C23.0881 2.00134 21.2668 1.19938 19.3164 1.01815C17.3659 0.836919 15.4079 1.28773 13.7785 2.29319C12.2983 3.2231 11.17 4.55643 10.5513 6.10683C9.74574 8.06592 9.88863 9.91819 10.6375 11.85C10.3912 12.1205 5.0208 17.1136 4.76214 17.3273L1.10142 20.7636C0.11603 21.65 0.438746 21.2477 0.325427 22.8091C0.15052 24.8227 0.209645 24.2046 0.123424 25.4386L0.113568 25.4546ZM20.3387 4.7841C20.0664 4.82616 19.8088 4.92744 19.5873 5.07955C19.3724 5.19395 19.1861 5.34883 19.0404 5.5341C17.8309 7.03637 19.2129 9.10456 21.1442 8.75455C21.674 8.67075 22.1485 8.40222 22.4696 8.00456C22.6616 7.78379 22.7996 7.52728 22.874 7.25266C22.9484 6.97804 22.9575 6.69182 22.9007 6.41365C22.8902 6.26785 22.8613 6.12369 22.8145 5.9841C22.7874 5.9841 22.7874 5.9841 22.7874 5.95683L22.7578 5.92956C22.7042 5.84264 22.6556 5.75311 22.6125 5.66137C22.4456 5.47739 22.2627 5.30636 22.0656 5.15001C21.8237 4.9777 21.5447 4.8551 21.2473 4.79043C20.9499 4.72575 20.6409 4.72049 20.3411 4.77501L20.3387 4.7841Z" fill="url(#paint0_linear_61110_120)"/>
<defs>
<linearGradient id="paint0_linear_61110_120" x1="13.5377" y1="0.978943" x2="13.5377" y2="25.9996" gradientUnits="userSpaceOnUse">
<stop stop-color="#B100E1"/>
<stop offset="0.6875" stop-color="#6A0785"/>
</linearGradient>
</defs>
</svg>
