<svg width="26" height="16" viewBox="0 0 26 16" fill="none" xmlns="http://www.w3.org/2000/svg">
<path fill-rule="evenodd" clip-rule="evenodd" d="M0.99987 8.39251C2.28512 10.577 8.08414 14.599 10.2794 15.2637C15.9524 17.0059 21.2194 13.7278 24.9344 9.67508C25.1381 9.45395 25.8431 8.62972 25.9999 8.39251C25.4048 7.33242 23.4133 5.55934 22.317 4.63996C19.8403 2.61359 16.7686 0.998657 13.4918 0.998657C10.5434 0.998657 8.13105 2.2169 6.12076 3.56245C4.46025 4.65471 2.82924 6.17449 1.54399 7.67953C1.34295 7.90204 1.15967 8.13999 0.99585 8.39117L0.99987 8.39251ZM11.9399 4.95759C12.0029 5.05275 12.0659 5.05275 12.1597 5.13182C13.1782 6.04985 12.3326 7.69695 11.0621 7.47448C10.7629 7.42925 10.4902 7.27741 10.2941 7.04696C10.2164 6.96789 10.1695 6.87273 10.1065 6.80974C9.93361 6.9518 9.77681 7.79076 9.74598 8.09231C9.69493 8.74791 9.81377 9.40561 10.091 10.0019C10.3683 10.5982 10.7946 11.1129 11.3288 11.4964C12.8968 12.6195 14.9473 12.2871 16.1535 11.0689C16.775 10.4358 17.1571 9.60628 17.2343 8.72245C17.3116 7.83862 17.0792 6.95542 16.577 6.22408C16.1218 5.55543 15.4642 5.05045 14.7007 4.78337C14.231 4.62906 13.7353 4.56983 13.2425 4.60914C12.945 4.62523 12.0833 4.78337 11.9412 4.95759H11.9399ZM13.0214 2.67926C12.259 2.73442 11.5169 2.94998 10.8436 3.31183C10.0292 3.75122 9.33237 4.38008 8.81201 5.14533C8.29166 5.91058 7.96302 6.78977 7.85382 7.70871C7.74461 8.62765 7.85806 9.55938 8.18458 10.4253C8.5111 11.2912 9.04112 12.0658 9.7299 12.6838C11.4386 14.2197 14.0561 14.6311 16.1722 13.4437C16.776 13.1196 17.3173 12.6907 17.7711 12.1772C18.6797 11.0702 19.323 9.63085 19.1501 7.87118C19.0231 6.40992 18.3452 5.05165 17.2538 4.07172C16.203 3.18585 14.7302 2.48896 13.0214 2.67926V2.67926Z" fill="url(#paint0_linear_61142_263)"/>
<defs>
<linearGradient id="paint0_linear_61142_263" x1="13.4979" y1="0.998657" x2="13.4979" y2="15.7422" gradientUnits="userSpaceOnUse">
<stop stop-color="#B100E1"/>
<stop offset="0.6875" stop-color="#6A0785"/>
</linearGradient>
</defs>
</svg>
