<svg width="21" height="21" viewBox="0 0 21 21" fill="none" xmlns="http://www.w3.org/2000/svg">
<path fill-rule="evenodd" clip-Rule="evenodd" d="M1.01215 18.1691C1.01215 18.5327 0.948517 19.1345 1.09761 19.4418C1.41761 20.1073 1.97034 20 2.50124 20H17.9158C18.0601 19.9913 18.2005 19.95 18.3265 19.8791C18.4525 19.8083 18.5607 19.7097 18.6431 19.5909C18.8558 19.3127 18.814 19.0545 18.814 18.6473V12.4346C18.814 11.8546 17.474 12.0055 16.8358 12.0055C16.5812 12.0055 16.1558 11.94 16.1085 12.3909C16.1085 14.26 16.1522 15.42 16.1085 17.2673H3.69215V4.74728C3.84124 4.70364 6.9867 4.72546 7.32852 4.72546C7.60488 4.72546 7.75215 4.74728 7.87397 4.55273L7.91579 2.55273C7.93761 1.90727 7.59761 1.99455 7.06488 1.99455H2.50124C2.21602 1.97155 1.92896 1.99302 1.65033 2.05818C1.43582 2.12678 1.25441 2.27256 1.14124 2.46727C0.992152 2.72364 1.01215 2.93818 1.01215 3.26182V18.1709V18.1691ZM20.8085 2.71454C20.8085 2.28364 20.5322 2.13455 20.2758 1.85455L18.9794 0.545455C18.6812 0.243636 18.554 0 18.1085 0C18.0054 0.00825534 17.905 0.0373246 17.8135 0.0854492C17.7219 0.133574 17.6411 0.199757 17.5758 0.280002L16.3212 1.55273L16.2376 1.63818C16.0449 1.83091 16.2158 1.98182 16.3012 2.04545L18.7885 4.55818C19.0867 4.86 19.1067 4.68727 19.6812 4.10727L20.5103 3.27091C20.5951 3.20283 20.6653 3.11827 20.7165 3.02233C20.7678 2.9264 20.7991 2.82108 20.8085 2.71273V2.71454ZM7.22124 14.0091C7.37033 14.0091 7.60488 13.9236 7.7667 13.9018L9.97761 13.4509C10.7049 13.28 10.4885 13.3873 11.0194 12.8509L11.5303 12.3345C11.594 12.2709 11.6376 12.2491 11.7012 12.1836L14.5067 9.32728C14.9958 8.81273 15.6122 8.25455 16.1012 7.73818L16.5067 7.30909L16.8467 6.96546L18.3558 5.46182C18.5049 5.29091 18.2922 5.14 18.1849 5.05455L15.6976 2.54182C15.634 2.47818 15.5922 2.39091 15.4849 2.43455C15.3776 2.47818 15.2085 2.69273 15.1449 2.75636C14.6994 3.18546 13.4012 4.51819 12.9631 4.94728L12.8776 5.03273C12.4103 5.52727 11.7867 6.12364 11.3031 6.62182L8.6467 9.30727C8.53942 9.41455 8.43397 9.52182 8.3267 9.65091C8.09633 9.86161 7.87666 10.0837 7.66851 10.3164C7.56124 10.4873 7.45579 11.1746 7.41215 11.4073L7.17942 12.4982C7.11579 12.82 7.00852 13.3345 6.9667 13.6364C6.94488 13.7218 6.90306 13.7855 7.00851 13.8927C7.03033 13.9364 7.00852 13.8927 7.03034 13.9145C7.03112 13.9256 7.03572 13.936 7.04336 13.9439C7.051 13.9519 7.06118 13.9569 7.07215 13.9582C7.09239 13.9757 7.11625 13.9885 7.14203 13.9958C7.1678 14.003 7.19485 14.0044 7.22124 14V14.0091Z"/>
</svg>
