<svg width="53" height="36" viewBox="0 0 53 36" fill="none" xmlns="http://www.w3.org/2000/svg">
<path fill-rule="evenodd" clip-rule="evenodd" d="M40.2023 5.84366L40.1673 32.3768L29.5973 32.415L29.785 9.0732L40.2023 5.84366ZM12.4441 8.07093C12.9627 7.84502 13.4845 7.65729 14.0064 7.46956V9.4232C13.4845 9.61093 12.9627 9.79866 12.4441 10.0246V8.07093ZM9.98773 6.11411C10.5095 5.8882 11.0282 5.66547 11.55 5.40138V7.35502L9.98773 8.03275V6.12366V6.11411ZM12.4059 5.06411C12.9277 4.80002 13.4464 4.57411 13.9682 4.31002V6.26683C13.4464 6.52774 12.9277 6.75366 12.4059 6.97957V5.07048V5.06411ZM14.8241 3.89638C15.3459 3.67048 15.8677 3.40957 16.3864 3.18366V5.13729C15.8677 5.40138 15.3459 5.6273 14.8241 5.88821V3.89638ZM10.0514 14.7973C10.5732 14.6478 11.095 14.5332 11.6136 14.3837V16.3437C11.095 16.4582 10.5732 16.6077 10.0514 16.7191V14.81V14.7973ZM14.9259 13.4068C15.4477 13.2573 15.9695 13.1427 16.4882 12.9932V14.985C15.9695 15.0964 15.4477 15.2491 14.9259 15.3605V13.4068ZM12.4791 14.1164C13.0391 13.9668 13.5609 13.8173 14.07 13.7028V15.6596C13.5514 15.7709 13.0296 15.9205 12.5077 16.035C12.5077 15.3987 12.5077 14.7623 12.4696 14.1259L12.4791 14.1164ZM10.0227 11.9368C10.5445 11.7873 11.0664 11.5996 11.5882 11.45V13.3591C11.0664 13.5468 10.5445 13.6964 10.0227 13.8491V11.94V11.9368ZM14.8623 10.2823C15.3841 10.0946 15.9027 9.94502 16.4245 9.75729C16.4245 10.435 16.4245 11.0714 16.4627 11.7491C15.9027 11.8987 15.3841 12.0864 14.8718 12.2391V10.2982L14.8623 10.2823ZM12.4441 11.1096C12.9627 10.9218 13.4845 10.7723 14.0064 10.6227V12.5764L12.4441 13.0282V11.1191V11.1096ZM9.98773 9.11775C10.5095 8.89184 11.0282 8.66911 11.55 8.40502C11.5882 9.07956 11.5882 9.71911 11.5882 10.3587L10.0227 11.0364C10.0227 10.4 10.0227 9.76366 9.98773 9.12729V9.11775ZM14.8623 7.05274C15.3841 6.82683 15.9027 6.63911 16.4245 6.41638V8.4082C15.9027 8.59593 15.3841 8.82184 14.8623 9.00957V7.05593V7.05274ZM33.8768 13.9287L35.8495 13.515V15.6214L33.8768 16.035V13.9287ZM30.8255 11.4118L32.76 10.9218V13.0282L30.8255 13.515V11.4118ZM33.8768 10.6609L35.8114 10.1328V12.2741L33.8768 12.7641V10.6609ZM36.89 9.86865L38.8246 9.34366V11.45L36.89 11.975V9.86865ZM30.8986 27.2732L32.8714 27.1968V29.3L30.8986 29.3764V27.2732ZM36.9441 26.8596L38.955 26.7832V28.8864L36.9441 28.9627V26.8596ZM33.9659 27.1205L35.9036 27.0823V29.1887L33.9659 29.2268V27.1205ZM31.0291 24.0787L32.9636 23.8877V25.9941L31.0291 26.1818V24.0787ZM37.0936 23.5505L39.0282 23.3627V25.4691L37.0936 25.6568V23.5505ZM34.0423 23.7764L36.015 23.665V25.7682L34.0423 25.9177V23.7764ZM30.9146 20.9127L32.8873 20.6868V22.7932L30.9146 23.0191V20.9127ZM36.9823 20.0505L38.955 19.8246V21.9277L36.9823 22.1537V20.0505ZM33.9659 20.4991L35.9036 20.2382V22.3891L33.9659 22.615V20.4991ZM30.8795 17.7946L32.8141 17.4573V19.5605L30.87 19.9105L30.8795 17.7946ZM36.9155 16.7159L38.85 16.3787V18.4818L36.9155 18.8223V16.7159ZM33.8641 17.2441L35.8368 16.9418V19.0482L33.8641 19.3473V17.2441ZM30.8509 14.6987L32.7855 14.2118V16.315L30.87 16.7923L30.8509 14.6987ZM36.9155 13.235L38.85 12.8214V14.9246L36.9155 15.3255V13.235ZM52.2836 34.9955C52.92 34.6964 52.6941 33.0418 52.7673 32.45L49.455 32.4118V7.43457C47.2977 6.53093 45.1405 5.66866 43.0914 4.8032C41.3064 4.0523 41.7168 4.0523 39.8173 4.61548C36.0214 5.81821 32.3018 7.02092 28.4677 8.18547V15.3637L25.9382 14.8768L25.865 2.5473C24.8214 2.0223 22.5145 1.30638 21.3245 0.857742C18.7568 -0.0968029 19.2023 -0.41498 16.7109 0.743202C13.8823 2.06047 11.0536 3.2632 8.18682 4.8032V18.4468L4.42909 19.2741C3.64955 19.4618 3.27727 19.535 3.20091 20.1364C3.2067 20.201 3.19459 20.2659 3.16591 20.3241V32.3514L0 32.4277V34.9064C34.72 35.0591 19.3136 34.9827 52.2836 34.9827V34.9955ZM4.69 32.065L23.3705 31.6514V30.1464L4.72818 30.7477L4.69 32.065ZM4.69 25.5232L23.345 23.3437L23.31 21.1164L4.74091 24.0118L4.69 25.5232ZM4.72818 20.4896V22.2173L23.2973 18.6091L23.3323 16.5409L4.72818 20.4896ZM4.72818 29.0964L4.69 27.3655L23.3705 25.7491V28.005L4.72818 29.0964ZM9.11909 18.1955V5.29002C10.5318 4.68866 12.4664 3.69911 13.8918 3.06275C18.06 1.15366 17.5 0.883197 17.465 3.4032V14.1514C17.465 15.09 17.6114 15.6564 17.465 16.0318C17.3155 16.2927 11.62 17.6832 9.12864 18.1732L9.11909 18.1955Z" fill="#E61C44"/>
</svg>
