<svg width="33" height="25" viewBox="0 0 33 25" fill="none" xmlns="http://www.w3.org/2000/svg">
<path fill-rule="evenodd" clip-rule="evenodd" d="M2.08419 18.3796C2.08419 19.0771 1.95195 20.1518 2.13662 20.7403C2.56296 20.9016 7.04062 20.7948 7.97537 20.7948H30.5461L30.5711 2.82042C30.5711 1.74801 30.6783 0.968684 30.065 0.40521C29.4517 -0.158264 28.6789 0.0303195 27.7737 0.0303195H4.90894C3.89668 0.0303195 2.93686 -0.158264 2.40109 0.646049C1.89496 1.34358 2.08191 2.84769 2.08191 3.94737C2.08191 8.74826 2.05455 13.5514 2.08191 18.3796H2.08419ZM32.6025 21.3037L20.6081 21.3583C20.2942 21.5007 20.0397 21.7472 19.8877 22.0558L11.9993 22.083C11.4385 21.2515 11.8397 21.331 10.5334 21.331L0.00494712 21.3583C-0.0474899 22.6988 0.324129 23.8257 0.777822 24.3892C1.36375 25.1685 1.95195 24.9799 2.72483 24.9799H29.7777C31.2163 24.9799 31.6427 25.1413 32.3631 23.344C32.6088 22.692 32.691 21.9901 32.6025 21.2992V21.3037ZM5.47207 3.034C4.72427 3.22258 4.91123 3.22258 4.91123 4.37679C4.91123 6.19445 4.83143 17.1731 4.93858 17.5548C5.15061 18.3069 5.71146 18.091 6.43189 18.091C13.52 18.091 20.1316 18.066 27.1947 18.066C27.9402 17.932 27.7532 17.2867 27.7532 16.4551C27.7532 14.6579 27.8079 3.82013 27.7008 3.47023C27.5138 2.77271 26.7888 3.01582 26.1801 3.01582C24.3152 3.01582 6.058 2.90903 5.47207 3.04308V3.034Z" fill="url(#paint0_linear_61144_260)"/>
<defs>
<linearGradient id="paint0_linear_61144_260" x1="16.3185" y1="0" x2="16.3185" y2="25" gradientUnits="userSpaceOnUse">
<stop stop-color="#B100E1"/>
<stop offset="0.6875" stop-color="#6A0785"/>
</linearGradient>
</defs>
</svg>
