<svg width="34" height="42" viewBox="0 0 34 42" fill="none" xmlns="http://www.w3.org/2000/svg">
<path fill-rule="evenodd" clip-rule="evenodd" d="M6.60649 3.61143V7.69143C5.71008 7.73507 1.66163 7.6078 1.1952 7.73507C0.845045 7.8403 0.53886 8.05669 0.323145 8.35137C0.10743 8.64605 -0.00603233 9.00292 -1.67021e-05 9.3678V30.5787C-1.67021e-05 32.8987 0.0874367 35.346 0.0437091 37.706C-0.0401021 39.6405 -0.127557 40.9787 2.04789 40.9787H21.5577C22.4942 40.9787 24.1996 41.0623 25.0522 40.9351C25.4902 40.8512 25.8805 40.6058 26.1454 40.2478C26.4442 39.7751 26.4005 39.346 26.4005 38.7023V13.3169C26.4005 12.546 26.5281 9.45143 26.3568 8.95325C26.3074 8.67932 26.1812 8.42497 25.9929 8.21967C25.8046 8.01436 25.5618 7.86651 25.2927 7.79325C24.8227 7.62234 23.7149 7.70598 23.2048 7.70598C22.1116 7.70598 10.3816 7.74962 9.91157 7.66235V5.11689L28.9987 5.07326C29.0424 6.92053 28.9549 8.08053 28.9987 9.92417C29.0424 10.7823 28.9987 11.7714 28.9987 12.6733V32.2114C28.9987 33.1569 29.1262 33.7132 29.8951 34.0987C30.664 34.4842 32.2382 34.2296 32.6645 33.6696C33.1747 33.026 33.0034 32.1678 33.0034 31.266V3.26599C33.0034 2.27689 32.9597 1.72052 32.2381 1.2478C31.5968 0.862343 30.5328 1.03325 29.7238 1.03325C22.7784 1.03325 15.7929 0.989617 8.84753 1.03325C8.20984 1.03325 7.78349 0.945979 7.18588 1.41871C6.58827 1.89143 6.632 2.66598 6.59192 3.60052L6.60649 3.61143ZM11.1214 14.3896C10.8074 14.4816 10.5271 14.6632 10.3151 14.9119C10.103 15.1607 9.96843 15.4658 9.92779 15.7899C9.88715 16.114 9.94225 16.4428 10.0863 16.736C10.2304 17.0293 10.4571 17.2741 10.7387 17.4405C11.1614 17.6987 11.5477 17.6551 12.1417 17.6551C13.0818 17.6551 18.1068 17.7387 18.617 17.6114C18.8326 17.5587 19.035 17.4622 19.2116 17.328C19.3881 17.1937 19.535 17.0245 19.6431 16.831C19.7512 16.6375 19.8181 16.4238 19.8396 16.2034C19.8612 15.9829 19.837 15.7603 19.7685 15.5496C19.7257 15.3476 19.6381 15.1578 19.5119 14.9941C19.3858 14.8305 19.2244 14.6972 19.0397 14.6042C18.6134 14.306 18.1907 14.3496 17.6368 14.3496C16.6966 14.3496 11.5842 14.2187 11.1177 14.3896H11.1214ZM8.09688 21.0042C7.83928 21.0265 7.59136 21.1128 7.37563 21.255C7.15991 21.3972 6.98321 21.591 6.86158 21.8187C6.71586 22.0584 6.63398 22.3312 6.62373 22.6113C6.61348 22.8915 6.6752 23.1696 6.803 23.4192C6.93081 23.6688 7.12047 23.8816 7.35395 24.0375C7.58743 24.1934 7.85698 24.287 8.13696 24.3096C8.86576 24.3533 13.2932 24.3096 14.2734 24.3096C14.9111 24.3096 18.0631 24.3533 18.4057 24.3096C18.6552 24.2792 18.8937 24.1893 19.1011 24.0475C19.3085 23.9058 19.4787 23.7163 19.5972 23.4951C19.7444 23.2322 19.8216 22.9361 19.8216 22.6351C19.8216 22.334 19.7444 22.0379 19.5972 21.7751C18.9158 20.6842 17.6404 21.0042 16.2739 21.0042C15.6362 21.0042 8.52322 20.9605 8.09688 21.0042ZM8.05315 27.6587C7.79628 27.6852 7.54968 27.7735 7.33452 27.916C7.11936 28.0585 6.94205 28.251 6.81784 28.4769C6.68832 28.746 6.62475 29.0419 6.63235 29.3403C6.63995 29.6388 6.71852 29.9311 6.86158 30.1933C7.49927 31.266 8.81838 30.9642 10.1849 30.9642C10.8663 30.9642 17.9356 31.0078 18.4057 30.9642C18.6811 30.9226 18.9421 30.8137 19.1652 30.6473C19.3884 30.4808 19.5668 30.2619 19.6848 30.01C19.8027 29.7581 19.8564 29.481 19.8411 29.2034C19.8259 28.9258 19.7421 28.6562 19.5972 28.4187C19.456 28.2028 19.2682 28.0212 19.0475 27.8872C18.8268 27.7531 18.5789 27.6701 18.3218 27.6442C17.6805 27.5605 13.0381 27.6442 12.1854 27.6442H10.0974C9.41663 27.6023 8.73392 27.6023 8.05315 27.6442V27.6587ZM4.04479 33.3714V36.8914H22.4067V11.7169L4.04479 11.7605V33.3605V33.3714Z" fill="#E61C44"/>
</svg>
