<svg width="46" height="36" viewBox="0 0 46 36" fill="none" xmlns="http://www.w3.org/2000/svg">
<path fill-rule="evenodd" clip-rule="evenodd" d="M2.91809 26.7273C2.91809 27.7041 2.73291 29.2091 2.99152 30.0332C3.58856 30.2591 9.8591 30.1095 11.1681 30.1095H42.7762L42.8113 4.9382C42.8113 3.43638 42.9614 2.34501 42.1025 1.55592C41.2437 0.766831 40.1614 1.03092 38.8938 1.03092H6.87389C5.45632 1.03092 4.11217 0.76683 3.36188 1.89319C2.65309 2.87001 2.9149 4.97637 2.9149 6.51637C2.9149 13.2396 2.87659 19.9659 2.9149 26.7273H2.91809ZM45.6561 30.8223L28.8591 30.8986C28.4195 31.0982 28.063 31.4434 27.8502 31.8755L16.8033 31.9136C16.0179 30.7491 16.5798 30.8605 14.7504 30.8605L0.00631761 30.8986C-0.0671153 32.7759 0.4533 34.3541 1.08866 35.1432C1.90919 36.2346 2.73291 35.9705 3.81525 35.9705H41.7003C43.7149 35.9705 44.3119 36.1964 45.3208 33.6795C45.6649 32.7665 45.78 31.7834 45.6561 30.8159V30.8223ZM7.6625 5.23729C6.61528 5.50138 6.87709 5.50138 6.87709 7.11774C6.87709 9.6632 6.76534 25.0377 6.9154 25.5723C7.21232 26.6255 7.99773 26.3232 9.00664 26.3232C18.9329 26.3232 28.1918 26.2882 38.0829 26.2882C39.1269 26.1005 38.8651 25.1968 38.8651 24.0323C38.8651 21.5155 38.9417 6.33819 38.7917 5.84819C38.5299 4.87137 37.5146 5.21183 36.6621 5.21183C34.0505 5.21183 8.48303 5.06228 7.6625 5.25001V5.23729Z" fill="#E61C44"/>
</svg>
