<svg width="56" height="36" viewBox="0 0 56 36" fill="none" xmlns="http://www.w3.org/2000/svg">
<path fill-rule="evenodd" clip-rule="evenodd" d="M6.50826 10.6218C5.20372 8.96728 6.28553 8.8941 2.48962 9.23137C0.29417 9.45728 -0.265827 10.4341 0.106446 12.69C1.00054 13.215 2.8619 13.5173 3.97554 13.8164C2.41327 14.9077 2.41326 16.4859 2.41326 22.1209C2.41326 38.0936 0.47872 35.8791 9.78236 35.9141C11.7169 35.9141 12.3851 36.14 13.0946 35.3891C13.9124 34.4886 13.5401 32.7577 13.6514 31.4436C18.3764 31.5932 23.1396 31.7045 27.9696 31.7427C32.7996 31.7809 37.7187 31.3291 42.3674 31.5168C42.4787 33.8491 41.8837 34.3359 43.3728 35.8791C45.0465 35.9523 50.7419 36.1018 52.1546 35.8791C54.0892 35.5768 53.456 31.0682 53.456 28.0232C53.456 24.9782 52.9469 19.4164 52.8737 16.3682C52.6128 14.6023 51.9446 14.1886 51.7219 14.0391C52.8387 13.3232 54.436 13.6255 55.7755 12.6868C55.9633 10.6568 55.7024 9.64182 53.6564 9.41591C52.7929 9.29002 51.9228 9.21459 51.0505 9.19C49.9337 9.33955 49.9337 9.86773 49.5614 10.6186C46.6978 8.70955 45.3583 2.575 41.1519 1.93864C36.7925 1.28811 32.39 0.969016 27.9823 0.984092C23.5524 1.0323 19.1288 1.334 14.7333 1.88773C12.2419 2.18682 12.0924 3.12545 10.7146 4.92954C9.70917 6.24682 7.25599 9.44137 6.51144 10.6059L6.50826 10.6218ZM6.95371 15.9577C7.88281 15.6968 8.73872 16.1105 10.3392 16.3332C11.5324 16.4859 18.4878 17.7236 19.1592 18.4014C20.1137 19.3782 18.7869 20.6286 17.0751 20.8068C15.9583 20.9564 13.3905 20.8068 12.2387 20.8068C9.55963 20.7686 8.48099 20.6955 6.51144 19.5341V21.6023L6.54644 28.405V31.2686C6.54809 31.3871 6.59588 31.5003 6.67967 31.584C6.76345 31.6678 6.87661 31.7156 6.99508 31.7173H9.07917C9.13855 31.7195 9.19775 31.7095 9.25303 31.6877C9.30831 31.6659 9.35847 31.6329 9.40033 31.5907C9.4422 31.5485 9.47486 31.4981 9.49626 31.4427C9.51765 31.3873 9.52731 31.328 9.52462 31.2686V28.5227C20.9474 28.7868 34.6801 28.7486 46.2873 28.4495V31.1541C46.289 31.2729 46.3367 31.3864 46.4204 31.4707C46.5041 31.555 46.6172 31.6035 46.736 31.6059H49.1542C49.2704 31.5969 49.3795 31.5463 49.4613 31.4633C49.5432 31.3802 49.5923 31.2704 49.5996 31.1541L49.3387 24.6155C49.3037 24.2018 49.3037 23.8264 49.2655 23.4127L49.1924 20.8673V19.9636C47.2546 21.055 46.2142 20.7909 43.6083 20.8291C42.4183 20.8291 40.1846 20.9786 39.071 20.8291C37.3592 20.6414 35.0142 19.6264 35.9814 18.6018C36.6496 17.9273 43.9805 16.4986 45.1737 16.3459C46.6978 16.1232 47.5155 15.7445 48.4828 15.9705C48.3364 15.6332 48.521 15.9355 48.3364 15.595L48.2601 15.7095C47.0701 14.1186 45.581 12.0632 43.0133 8.49318C42.5296 7.85682 40.4105 5.59773 40.0001 5.44818C36.7642 4.28364 19.9069 4.28364 15.9233 5.48636C15.0324 5.75045 12.2769 9.16773 11.3096 10.4086C9.87388 12.0235 8.57943 13.7587 7.44054 15.595C7.21781 15.9355 7.06826 15.6332 6.9569 15.9705L6.95371 15.9577Z" fill="#E61C44"/>
</svg>
