<svg width="42" height="31" viewBox="0 0 42 31" fill="none" xmlns="http://www.w3.org/2000/svg">
<path fill-rule="evenodd" clip-rule="evenodd" d="M1.88642 29.7873C4.78824 30.1745 25.7964 29.9182 30.6101 29.9182C36.8828 29.9182 35.5819 30.9464 38.1646 23.1C38.9282 20.7818 41.5437 13.9882 41.3828 11.7654C40.5864 11.3154 40.5864 11.1218 39.4737 11.0591H18.7191C16.7746 11.0591 8.54915 10.6391 7.49915 11.4109C6.76551 11.8882 4.85097 18.51 4.24279 19.8736L4.18006 8.05908L31.9764 7.99363L32.5519 9.50727L35.2928 9.41182C35.2273 7.35 35.3555 6.70635 34.911 5.03181C30.9264 4.22726 21.5855 4.87091 16.8046 4.77545C12.7546 0.812726 16.6764 0.0736294 8.77006 0.0736294C7.33552 0.0736294 3.60733 -0.120001 2.42642 0.13909C0.481877 0.490908 1.08733 3.29181 1.08733 5.15999V24.4145C1.08733 27.4418 0.672789 28.2136 1.8837 29.79L1.88642 29.7873Z" fill="#E61C44"/>
</svg>
