<svg width="43" height="35" viewBox="0 0 43 35" fill="none" xmlns="http://www.w3.org/2000/svg">
<path fill-rule="evenodd" clip-rule="evenodd" d="M7.31995 5.90177C-0.159869 5.90177 0.00238519 5.22409 0.0278376 10.9382C0.0278376 12.2108 -0.0835146 15.3732 0.139194 16.4231C0.288726 17.0245 1.47862 19.3565 2.18493 19.996C2.51899 20.2569 2.82124 20.3333 3.00577 20.4828C3.82342 21.1191 2.77988 21.2368 6.09187 22.8149C9.55339 24.4311 15.5442 24.8797 19.3398 24.8065C19.5275 23.0408 18.7035 20.521 20.9051 20.3714C23.3963 20.2219 22.5405 22.853 22.69 24.7683C26.5079 25.1438 28.6427 24.6188 32.3269 23.9411C34.1499 23.6421 36.7556 22.7003 38.095 21.6854C38.6276 21.3016 39.1375 20.8873 39.6222 20.4446C40.7007 19.242 42.1897 16.9131 42.2629 15.1473C42.3011 14.2438 42.2629 13.3052 42.3011 12.4017C42.3392 5.18592 43.0074 5.90177 33.7427 5.90177C33.52 4.24736 34.1881 1.80393 31.5824 0.451774C30.5039 -0.114541 30.5039 -1.55264e-06 28.9036 0.038177L12.5695 0C9.88746 0.0381786 8.51302 1.72758 8.54802 4.32054C8.5862 5.93676 8.88527 5.91131 7.31995 5.91131V5.90177ZM11.1919 5.86359C17.5168 5.93676 25.073 6.0513 31.0988 5.86359C31.1665 5.2019 31.1793 4.53574 31.137 3.87194C30.8188 2.02982 28.0859 2.63114 26.0465 2.63114H12.754C10.8451 2.66931 10.931 4.05965 11.1919 5.86359Z" fill="#E61C44"/>
<path fill-rule="evenodd" clip-rule="evenodd" d="M0.186847 21.1255L0.14867 27.7399C0.186848 30.8992 -0.487641 33.2281 1.44992 34.6566C2.23258 35.2197 4.98462 34.9207 6.02816 34.9207L38.9985 34.9588C42.4982 34.9588 41.9383 32.7318 42.0115 28.5671C42.0878 25.7483 42.2724 21.5391 42.0496 18.8348C41.1206 19.3597 41.3815 20.3746 38.814 22.2549C36.8033 23.7184 35.2411 24.0939 33.0872 24.6952L29.0308 25.5224C27.1218 25.8628 24.6784 25.5605 22.7058 25.8246C22.6327 26.8395 23.2276 29.5438 21.1151 29.5089C20.7795 29.4754 20.4578 29.3579 20.1798 29.1672C19.9017 28.9764 19.6762 28.7186 19.5243 28.4176C19.2634 27.7399 19.4511 26.5755 19.3748 25.7864C16.6577 25.6751 13.2725 25.7101 10.5937 24.9592C10.1101 24.8479 9.63922 24.8829 9.1429 24.7715C5.71956 24.0589 1.73626 21.9527 0.470004 18.6439C0.0245877 19.0225 0.2123 20.3364 0.2123 21.1255H0.186847Z" fill="#E61C44"/>
</svg>
