<svg width="18" height="20" viewBox="0 0 18 20" fill="none" xmlns="http://www.w3.org/2000/svg">
<path fill-rule="evenodd" clip-rule="evenodd" d="M15.6982 5.43047L1.54743 5.45229C1.58925 6.31047 1.54743 7.27046 1.54743 8.1559V16.2686C1.54743 17.234 1.44016 17.9195 1.86561 18.6722C2.75833 20.2594 4.33105 19.9813 5.94558 19.9813H11.3001C12.8728 19.9813 14.5291 20.2594 15.38 18.6722C15.8037 17.8995 15.6982 17.234 15.6982 16.2686V5.43047ZM6.32739 2.16868C6.00921 2.2105 2.67288 2.16868 2.05652 2.16868C1.32926 2.16868 0.718352 2.06141 0.272901 2.55413C0.0861755 2.77626 -0.0108141 3.06015 0.00095879 3.3501C0.0127316 3.64005 0.132413 3.91514 0.336533 4.1214C0.781984 4.5723 1.44016 4.46503 2.16379 4.46503H15.06C15.8037 4.46503 16.4637 4.5723 16.8873 4.14321C17.5255 3.51958 17.2273 2.59777 16.7182 2.33959L16.5691 2.27595H16.5546C16.2364 2.10323 13.5164 2.16868 13.071 2.16868C12.731 2.16868 11.1364 2.1905 10.9455 2.16868C10.8401 -0.964018 6.42012 -0.471295 6.33467 2.16868H6.32739ZM7.56011 2.16868H9.70554C9.70554 1.88418 9.59253 1.61133 9.39135 1.41016C9.19018 1.20898 8.91733 1.09597 8.63283 1.09597C8.34832 1.09597 8.07547 1.20898 7.8743 1.41016C7.67313 1.61133 7.56011 1.88418 7.56011 2.16868ZM9.04737 7.53409C9.0078 7.4596 8.94917 7.39694 8.87745 7.35253C8.80574 7.30812 8.72351 7.28355 8.63919 7.28133C8.55487 7.27911 8.47147 7.29932 8.39752 7.3399C8.32356 7.38047 8.26171 7.43996 8.21829 7.51228C8.0492 7.79046 8.13465 15.3304 8.13465 15.6249C8.13465 16.074 8.02738 16.8049 8.60192 16.8467C9.17646 16.8886 9.11101 16.2031 9.11101 15.7104C9.11101 15.4086 9.19646 7.79046 9.04737 7.52864V7.53409ZM4.20378 7.85591V16.2686C4.20378 17.0195 5.18013 17.0413 5.18013 16.2467C5.18013 15.2158 5.22376 8.005 5.16013 7.72682C5.07467 7.14682 4.20378 7.08319 4.20378 7.85591ZM12.0855 7.85591V16.2686C12.0855 16.5904 12.2564 16.8267 12.5528 16.8467C12.9164 16.8467 13.0419 16.5686 13.0419 16.2467V7.85591C13.0419 7.06137 12.0855 7.105 12.0855 7.85591Z" fill="white"/>
</svg>
