<svg width="41" height="35" viewBox="0 0 41 35" fill="none" xmlns="http://www.w3.org/2000/svg">
<path fill-rule="evenodd" clip-rule="evenodd" d="M32.9179 29.0671H31.5945V9.01003C29.9689 8.93368 28.986 9.01003 27.3572 8.97186C26.5651 8.93368 25.6935 8.97186 24.9014 8.97186H7.69146C6.858 8.97186 6.36493 8.85734 6.02455 8.17021C5.68417 7.48309 5.91321 6.06747 6.4031 5.68574C7.0107 5.22765 7.72646 5.36762 8.55991 5.36762H33.1819C34.0535 5.36762 34.5816 5.40581 34.9601 6.09293C35.3005 6.62736 35.1892 7.5817 35.1892 8.31973C35.1892 14.5834 35.2242 20.812 35.1892 27.0375C35.1892 27.6483 35.2624 28.03 34.8488 28.5263C34.3557 29.1021 33.7513 29.0257 32.9179 29.0639V29.0671ZM29.3264 29.0671C29.2882 29.8687 29.3995 33.4984 29.25 33.9183C29.1687 34.2267 28.9869 34.4992 28.7335 34.6928C28.48 34.8864 28.1692 34.9899 27.8503 34.9872H9.16433C7.08386 34.9872 4.93024 34.9108 2.88795 34.9872C1.14787 35.0253 0.0249277 35.1017 0.0249277 33.1548V15.6586C0.0249277 14.8188 -0.0514162 13.2918 0.0631046 12.5284C0.0835713 12.3335 0.148761 12.146 0.253601 11.9804C0.35844 11.8149 0.500095 11.6758 0.667518 11.574C1.08425 11.2559 1.42463 11.3068 1.99087 11.3068C12.8481 11.3068 12.6954 11.345 24.3447 11.3068C25.0255 11.3068 27.7867 11.2305 28.2416 11.345C28.4759 11.4103 28.6911 11.5312 28.8689 11.6973C29.0466 11.8634 29.1817 12.0699 29.2627 12.2993C29.4122 12.7192 29.3391 13.7117 29.3391 14.208C29.3391 15.1623 29.3009 25.2116 29.3391 26.0514L29.3264 29.0671ZM21.6471 23.1438L10.2618 16.9183V29.3248L21.6471 23.1438ZM38.189 23.7164H36.9165V3.62437C35.2878 3.5862 34.2667 3.66254 32.6793 3.62437C31.884 3.5862 31.0155 3.62437 30.2203 3.62437H13.0103C12.18 3.62437 11.687 3.50985 11.3466 2.81954C11.0062 2.12924 11.2321 0.719988 11.7251 0.338252C12.3296 -0.119832 13.0485 0.0201384 13.8438 0.0201384H38.5039C39.3724 0.0201384 39.8655 0.0583132 40.2822 0.707265C40.6226 1.27987 40.4699 2.23421 40.4699 2.95951C40.4699 9.18818 40.5462 15.4518 40.4699 21.6805C40.4699 22.2531 40.5462 22.6348 40.1295 23.1693C39.7128 23.7037 39.032 23.6655 38.2017 23.7037L38.189 23.7164ZM6.69577 31.3511H3.6037V14.8919H25.7317V31.3575L6.69577 31.3511Z" fill="#E61C44"/>
</svg>
