<svg width="22" height="25" viewBox="0 0 22 25" fill="none" xmlns="http://www.w3.org/2000/svg">
<path fill-rule="evenodd" clip-rule="evenodd" d="M2.95535 0.76317V1.52634L2.64721 1.56723C2.47775 1.58973 2.12763 1.70943 1.86913 1.83332C0.924085 2.28623 0.213696 3.25159 0.0640961 4.28599C-0.0210219 4.87507 -0.0215359 19.5462 0.0635821 20.1545C0.248219 21.4739 1.35803 22.638 2.66605 22.8841C2.93323 22.9343 4.24742 22.9508 6.94124 22.9378L10.8307 22.9189V22.2438V21.5688L6.81266 21.5367C2.33747 21.5009 2.58691 21.5266 2.05235 21.0447C1.9014 20.9086 1.71046 20.6527 1.62798 20.4759L1.47799 20.1545L1.47877 12.2148C1.47947 4.63341 1.48487 4.26342 1.59822 4.01386C1.77507 3.62459 2.11072 3.27698 2.47273 3.10842C2.64978 3.026 2.83082 2.95824 2.87499 2.95792C2.93484 2.9574 2.95535 3.15406 2.95535 3.72874V4.5002H8.86989H14.7844V3.72874C14.7844 3.30443 14.7999 2.95727 14.8187 2.95727C14.8376 2.95727 14.9895 3.02703 15.1562 3.11227C15.519 3.29768 15.8091 3.5927 16.0151 3.98589L16.1666 4.27519L16.1846 9.14723L16.2027 14.0192L16.8918 14.001L17.581 13.9828L17.5806 9.03254L17.5802 4.08232L17.4357 3.7018C17.0337 2.64361 16.1387 1.83345 15.109 1.59577L14.7844 1.52087V0.760405V0H8.86989H2.95535V0.76317ZM2.79173 5.86672C2.77418 5.91256 2.76762 6.55679 2.7772 7.29842L2.79463 8.64681H4.20897H5.62332V7.23246V5.81812L4.2235 5.80076C3.12423 5.78719 2.81687 5.80134 2.79173 5.86672ZM4.884 7.23246V7.90749H4.20897H3.53394V7.23246V6.55743H4.20897H4.884V7.23246ZM6.23406 7.23246V7.65034H10.0592H13.8844V7.23246V6.81459H10.0592H6.23406V7.23246ZM2.77733 10.751L2.79463 12.1827H4.20897H5.62332V10.7683V9.35399L4.19168 9.33669L2.76004 9.3194L2.77733 10.751ZM4.884 10.7683V11.4434H4.20897H3.53394V10.7683V10.0933H4.20897H4.884V10.7683ZM6.23406 10.7362V11.1862H10.0592H13.8844V10.7362V10.2862H10.0592H6.23406V10.7362ZM2.76248 14.4637V15.8793H4.21026H5.65797L5.64068 14.481L5.62332 13.0827L4.1929 13.0654L2.76248 13.0481V14.4637ZM4.884 14.4649V15.1721H4.20897H3.53394V14.4649V13.7578H4.20897H4.884V14.4649ZM6.23406 14.4328V14.8507H8.91953H11.605L11.8391 14.6577C11.9679 14.5515 12.2484 14.3819 12.4625 14.2806C12.6765 14.1794 12.8334 14.0782 12.8109 14.0557C12.7884 14.0333 11.2995 14.0149 9.50205 14.0149H6.23406V14.4328ZM13.3183 15.568C12.9465 15.6528 12.508 16.0738 12.41 16.4401C12.359 16.6307 12.3428 17.8093 12.3556 20.399L12.3736 24.0863L12.5665 24.3968C12.6865 24.59 12.8566 24.7581 13.0165 24.8417C13.2676 24.973 13.3632 24.9766 17.0667 24.9955C19.6456 25.0088 20.936 24.9928 21.0979 24.9456C21.4082 24.8552 21.7016 24.604 21.8605 24.2927C21.9837 24.0512 21.9871 23.9213 21.9702 20.1976L21.9526 16.3519L21.7801 16.0912C21.6717 15.9275 21.4924 15.7738 21.2979 15.6781L20.9883 15.5257L17.2917 15.5153C15.0629 15.509 13.4852 15.5299 13.3183 15.568ZM20.8767 16.4471C21.1534 16.6441 21.3215 17.1 21.2359 17.421C21.2003 17.554 20.3538 19.1235 19.3547 20.9089C17.674 23.912 17.5188 24.1658 17.2801 24.2999C16.9582 24.4808 16.496 24.4568 16.2268 24.2451C16.1286 24.1678 15.7796 23.7365 15.4514 23.2867C15.1231 22.8369 14.491 21.977 14.0468 21.3759C13.1531 20.1668 13.0489 19.9468 13.1733 19.5316C13.3691 18.8781 14.1944 18.6131 14.7054 19.0397C14.8019 19.1203 15.2737 19.7223 15.7539 20.3775C16.2341 21.0327 16.6525 21.565 16.6838 21.5605C16.7151 21.5558 17.3492 20.4656 18.093 19.1376C19.4135 16.7799 19.6317 16.439 19.8954 16.3229C20.1174 16.225 20.6615 16.2939 20.8767 16.4471ZM2.76248 18.0651V19.4794H4.20897H5.65547V18.0651V16.6507H4.20897H2.76248V18.0651ZM4.884 18.0651V18.7723H4.20897H3.53394V18.0651V17.3579H4.20897H4.884V18.0651ZM6.27771 17.6571C6.25374 17.6812 6.23406 17.8695 6.23406 18.0758V18.4508H8.55154H10.8689L10.8499 18.049L10.8307 17.6472L8.57603 17.6303C7.33597 17.621 6.30176 17.6331 6.27771 17.6571Z" fill="white"/>
</svg>
