<svg width="32" height="25" viewBox="0 0 32 25" fill="none" xmlns="http://www.w3.org/2000/svg">
<path fill-rule="evenodd" clip-rule="evenodd" d="M9.64689 0.0485067C8.65007 0.155346 8.78223 0.398573 8.78223 1.68519C8.78223 1.98071 8.80911 2.19666 8.62543 2.36715C8.54703 2.47399 7.34188 2.90362 6.8961 3.1173C6.60938 3.25142 6.29353 3.49465 6.00008 3.2787L5.18694 2.44671C4.96293 2.1512 4.66501 2.01708 4.32452 2.20575C3.99204 2.41105 3.69029 2.66367 3.42849 2.9559C2.95808 3.41054 1.88285 4.35164 2.08446 4.94267C2.30991 5.26963 2.57397 5.56736 2.87072 5.82921C3.28961 6.23156 3.39265 6.31112 3.07905 6.92943C2.89536 7.3045 2.73856 7.70686 2.58175 8.10921C2.42495 8.64795 2.45183 8.99575 1.79549 8.99575C0.303616 8.99575 -0.00999129 8.75479 0.0146493 10.5256C0.0146493 11.0894 -0.0883938 12.4851 0.252095 12.8602C0.382018 13.0216 0.590344 13.0216 0.879311 13.0216C1.16828 13.0216 1.40348 13.0488 1.69021 13.0488C2.55487 13.0488 2.29279 13.2375 2.79008 14.4446C3.36801 15.8676 3.57634 15.4652 2.53023 16.5382C2.26815 16.8064 1.85822 17.1565 2.16286 17.6748C2.41183 18.0394 2.69219 18.381 3.00065 18.6954C3.04182 18.7124 3.07805 18.7398 3.10593 18.775L3.73314 19.4183C4.72997 20.3594 4.91141 19.8479 5.67079 19.0978C6.43017 18.3476 6.08968 18.7204 7.92429 19.3933C8.42158 19.5797 8.76207 19.5274 8.76207 20.198C8.76207 20.6276 8.68367 21.4596 8.892 21.7551C9.02416 21.9142 9.15408 21.8892 9.31088 21.9415C9.36242 21.9639 9.4156 21.9821 9.46993 21.9961C10.2545 22.0506 11.0419 22.0506 11.8265 21.9961C12.3484 21.9688 12.6889 21.8347 12.7225 21.2709V20.3935C12.7225 19.4842 12.7763 19.6683 13.3945 19.4274L13.8425 19.241C14.0262 19.1319 13.7372 19.2933 13.894 19.2137L14.5481 18.9455C15.4128 18.5158 15.2202 18.5158 16.0938 19.3751C16.3559 19.6433 16.6448 20.073 17.1152 19.857C17.5857 19.6411 18.4772 18.65 18.8446 18.2476C19.0529 18.0044 19.5166 17.5656 19.3934 17.1474C19.2702 16.7291 18.3204 16.0108 18.242 15.7835C18.1636 15.5562 18.2689 15.3288 18.3473 15.1402C18.543 14.7564 18.7172 14.3618 18.8692 13.9581C19.0282 13.4762 19.0014 13.0488 19.6039 13.0488C21.0958 13.0488 21.4363 13.3443 21.4632 11.5735C21.4632 11.0621 21.4878 10.4188 21.4363 9.90957C21.3579 8.83435 20.939 9.00029 19.8907 9.00029C19.6039 9.00029 19.3419 9.02757 19.1851 8.86618C19.0282 8.70478 18.8177 7.92735 18.7124 7.65912C18.6071 7.44316 18.5287 7.28177 18.4503 7.09537C18.0583 6.23611 18.0314 6.3975 18.8983 5.53824C19.7092 4.70626 19.5524 4.54486 18.5847 3.49238C18.3253 3.19521 18.0453 2.91718 17.7469 2.66039C16.777 1.75112 16.6471 2.06937 15.7824 2.95363C15.0745 3.70606 15.3344 3.33098 13.5827 2.68539C13.0854 2.49899 12.718 2.55128 12.718 1.88069C12.718 0.323561 12.9017 0.00304026 11.2508 0.00304026C10.7096 -0.0076375 10.1683 0.00981558 9.62897 0.055326L9.64689 0.0485067ZM31.7473 20.2321C31.539 20.1252 31.6174 20.098 31.2993 19.9911C31.0316 19.897 30.8075 19.706 30.6698 19.4547C30.4458 19.0523 30.3809 18.2203 30.4458 17.7111C30.6698 15.9653 31.6241 16.5291 31.754 16.0449C31.8078 15.8039 31.6241 15.4289 31.5457 15.2675C31.3298 14.8394 31.085 14.427 30.8132 14.0331C29.9485 12.8261 30.1837 14.9424 28.1677 13.8717C25.1794 12.3146 28.7635 11.1871 25.045 11.3212C23.7615 11.3758 24.0751 11.6986 24.1266 12.2623C24.1804 13.2284 22.8184 13.9513 22.1375 14.14C20.6971 14.5423 20.9592 12.5487 19.7809 14.5946C18.4705 16.9019 19.7271 15.8017 20.3051 16.8678C20.6187 17.4861 20.724 19.4183 19.8571 19.8752C19.3867 20.1162 18.914 19.982 19.4091 21.0118C19.6082 21.4439 19.8451 21.857 20.1169 22.2461C20.6657 23.0236 20.7195 22.5689 21.2683 22.2461C22.0815 21.7915 23.5218 22.7826 23.8869 23.2918C23.9731 23.3953 24.0382 23.515 24.0786 23.6442C24.1189 23.7733 24.1338 23.9093 24.1221 24.0442C24.0706 24.6625 23.6002 25.0922 25.9814 24.983C27.2403 24.9308 26.846 24.5284 26.8214 24.0169C26.7945 23.4282 27.1865 23.1849 27.3971 22.9167C27.8333 22.588 28.3199 22.3345 28.8375 22.1666C29.1163 22.0816 29.4168 22.1101 29.6752 22.2461C29.8052 22.3007 29.7268 22.2461 29.832 22.3257L29.9373 22.4348C30.3293 22.8372 30.513 22.6758 30.8333 22.2461C30.9655 22.0575 31.0574 21.8711 31.2007 21.6551C31.4359 21.2527 31.7764 20.7163 31.7495 20.2321H31.7473ZM25.1481 14.9719C24.7534 15.0102 24.3699 15.127 24.0197 15.3158C23.6696 15.5046 23.3595 15.7616 23.1074 16.0722C22.7629 16.4701 22.5217 16.949 22.4057 17.4655C22.2897 17.9819 22.3025 18.5196 22.4431 19.0298C22.5837 19.5399 22.8475 20.0064 23.2107 20.3868C23.5738 20.7673 24.0248 21.0498 24.5228 21.2087C25.0208 21.3675 25.5499 21.3977 26.0623 21.2966C26.5747 21.1954 27.0541 20.966 27.457 20.6293C27.86 20.2925 28.1737 19.859 28.3698 19.3681C28.5658 18.8772 28.638 18.3444 28.5799 17.818C28.518 17.2011 28.285 16.6146 27.9078 16.1267C27.3321 15.3743 26.1539 14.8106 25.157 14.9719H25.1481ZM10.3279 4.93357C9.91202 4.98371 9.50027 5.06423 9.09584 5.17453C8.37849 5.37322 7.70955 5.72076 7.13131 6.19519L6.7393 6.54526C6.07423 7.16267 5.55651 7.92572 5.22543 8.77648C4.89435 9.62725 4.75861 10.5434 4.82853 11.4553C4.9419 13.0207 5.64456 14.4818 6.79082 15.5357C7.37974 16.0784 8.07125 16.4938 8.82333 16.7568C9.5754 17.0198 10.3723 17.1248 11.1657 17.0655C11.9267 17.0229 12.6714 16.825 13.3554 16.4836C14.0393 16.1423 14.6484 15.6645 15.1462 15.0788C17.346 12.6647 17.1623 8.66387 14.7273 6.46343C13.5737 5.47005 11.8713 4.74717 10.3279 4.93357Z" fill="white"/>
</svg>
