<svg width="22" height="26" viewBox="0 0 22 26" fill="none" xmlns="http://www.w3.org/2000/svg">
<path fill-rule="evenodd" clip-rule="evenodd" d="M10.6766 25C19.4997 25 25.2105 19.5236 18.1802 12.8657C17.2828 12.0161 16.2286 11.3237 15.068 10.8214C14.645 10.6339 14.7558 10.6902 14.4435 10.8777C13.3555 11.5516 12.0809 11.9174 10.7742 11.9307C9.46742 11.944 8.18456 11.6043 7.08093 10.9527C6.61762 10.6902 6.75863 10.6339 6.1946 10.8777C5.3348 11.2654 4.52966 11.7505 3.79746 12.3218L2.79027 13.2596C2.67503 13.3661 2.57052 13.4822 2.47804 13.6065C-2.97089 19.9456 1.36007 25.0188 10.6464 25.0188L10.6766 25ZM11.1299 10.934C11.1903 10.859 11.1299 10.934 11.1299 10.7746H11.3615V10.5401H11.5025C11.5224 10.6713 11.4901 10.8046 11.4119 10.9152C12.5293 10.7741 13.5789 10.3344 14.4335 9.64928C15.1723 9.05623 15.7427 8.30272 16.094 7.45544C16.4454 6.60816 16.5669 5.69327 16.4478 4.79182C16.3387 3.95708 16.0231 3.15727 15.5259 2.45524C15.0287 1.75321 14.3634 1.16809 13.5823 0.745838C12.8012 0.323586 11.9256 0.0757034 11.0243 0.0216752C10.123 -0.032353 9.22045 0.108939 8.38766 0.434452C7.55488 0.759966 6.81448 1.26085 6.22469 1.89772C5.63489 2.53459 5.21175 3.2901 4.9885 4.10492C4.76524 4.91974 4.74795 5.77166 4.938 6.59374C5.12805 7.41583 5.52028 8.18569 6.08382 8.84284C6.30431 9.09836 6.54322 9.33959 6.79892 9.56489C7.32567 9.99372 7.92455 10.339 8.5716 10.587C9.38017 10.8742 10.2466 10.9927 11.1097 10.934H11.1299Z" fill="black"/>
</svg>
